<svg width="224" height="202" viewBox="0 0 224 202" fill="none" xmlns="http://www.w3.org/2000/svg">
<path fill-rule="evenodd" clip-rule="evenodd" d="M117.782 65.7894C115.274 64.3412 113.191 62.2583 111.743 59.75L126.032 51.5L126.032 35C128.929 35 131.774 35.7624 134.282 37.2106C136.791 38.6588 138.874 40.7417 140.322 43.25C141.77 45.7583 142.532 48.6036 142.532 51.5C142.532 54.3964 141.77 57.2417 140.322 59.75C138.874 62.2583 136.791 64.3412 134.282 65.7894C131.774 67.2376 128.929 68 126.032 68C123.136 68 120.291 67.2376 117.782 65.7894ZM124.485 36.0626C124.778 36.035 124.993 35.7754 124.965 35.4827C124.938 35.1901 124.678 34.9752 124.386 35.0027C115.783 35.813 109 42.3925 109 51.1104C109 53.8279 109.661 56.3951 110.834 58.6641C110.969 58.9253 111.29 59.0275 111.551 58.8926C111.812 58.7576 111.915 58.4365 111.78 58.1753C110.683 56.0532 110.065 53.6532 110.065 51.1104C110.065 43.0078 116.361 36.8278 124.485 36.0626Z" fill="white"/>
<path fill-rule="evenodd" clip-rule="evenodd" d="M59.8766 133.475L45.2668 148.741C44.4992 149.619 45.123 150.993 46.2895 150.993L182.033 150.993C183.2 150.993 183.823 149.619 183.056 148.741L168.446 133.475V70.0858C168.446 69.3357 167.838 68.7276 167.088 68.7276H61.2348C60.4847 68.7276 59.8766 69.3357 59.8766 70.0858V133.475ZM169.804 133.06L184.078 147.847C185.614 149.604 184.366 152.351 182.033 152.351L46.2895 152.351C43.9565 152.351 42.7089 149.604 44.2442 147.847L58.5185 132.852V70.0858C58.5185 68.5856 59.7346 67.3694 61.2348 67.3694H167.088C168.588 67.3694 169.804 68.5856 169.804 70.0858V133.06ZM64.5642 71.4165C63.4597 71.4165 62.5642 72.3119 62.5642 73.4165V130.094H165.756V73.4165C165.756 72.3119 164.861 71.4165 163.756 71.4165H64.5642ZM72.7512 77.8965C72.1989 77.8965 71.7512 78.3442 71.7512 78.8965V123.647C71.7512 124.199 72.1989 124.647 72.7512 124.647H155.203C155.756 124.647 156.203 124.199 156.203 123.647V85.4369H71.7533V83.9289H156.203V78.8965C156.203 78.3442 155.756 77.8965 155.203 77.8965H72.7512ZM76.2776 82.4208C77.1105 82.4208 77.7856 81.7456 77.7856 80.9127C77.7856 80.0798 77.1105 79.4047 76.2776 79.4047C75.4447 79.4047 74.7695 80.0798 74.7695 80.9127C74.7695 81.7456 75.4447 82.4208 76.2776 82.4208ZM82.3098 80.9127C82.3098 81.7456 81.6346 82.4208 80.8018 82.4208C79.9689 82.4208 79.2937 81.7456 79.2937 80.9127C79.2937 80.0798 79.9689 79.4047 80.8018 79.4047C81.6346 79.4047 82.3098 80.0798 82.3098 80.9127ZM85.326 82.4208C86.1589 82.4208 86.8341 81.7456 86.8341 80.9127C86.8341 80.0798 86.1589 79.4047 85.326 79.4047C84.4931 79.4047 83.8179 80.0798 83.8179 80.9127C83.8179 81.7456 84.4931 82.4208 85.326 82.4208ZM77.2775 89.9612C76.7252 89.9612 76.2775 90.4089 76.2775 90.9612V119.123C76.2775 119.675 76.7252 120.123 77.2775 120.123H102.423C102.975 120.123 103.423 119.675 103.423 119.123V90.9612C103.423 90.4089 102.975 89.9612 102.423 89.9612H77.2775ZM109.455 90.9612C109.455 90.4089 109.903 89.9612 110.455 89.9612H128.06C128.612 89.9612 129.06 90.4089 129.06 90.9612V93.4854C129.06 94.0377 128.612 94.4854 128.06 94.4854H110.455C109.903 94.4854 109.455 94.0377 109.455 93.4854V90.9612ZM110.455 97.5016C109.903 97.5016 109.455 97.9493 109.455 98.5016V101.026C109.455 101.578 109.903 102.026 110.455 102.026H144.649C145.201 102.026 145.649 101.578 145.649 101.026V98.5016C145.649 97.9493 145.201 97.5016 144.649 97.5016H110.455ZM109.455 106.042C109.455 105.49 109.903 105.042 110.455 105.042H150.681C151.234 105.042 151.681 105.49 151.681 106.042V108.566C151.681 109.118 151.234 109.566 150.681 109.566H110.455C109.903 109.566 109.455 109.118 109.455 108.566V106.042ZM110.455 112.582C109.903 112.582 109.455 113.03 109.455 113.582V116.106C109.455 116.659 109.903 117.106 110.455 117.106H150.681C151.234 117.106 151.681 116.659 151.681 116.106V113.582C151.681 113.03 151.234 112.582 150.681 112.582H110.455Z" fill="url(#paint0_linear_187_2640)"/>
<path fill-rule="evenodd" clip-rule="evenodd" d="M44.0115 84.8202C50.5215 82.7024 55.0752 77.839 55.0752 72.1778C55.0752 64.5707 46.8529 58.4039 36.71 58.4039C26.5672 58.4039 18.3448 64.5707 18.3448 72.1778C18.3448 79.7849 26.5672 85.9517 36.71 85.9517C37.9225 85.9517 39.1075 85.8636 40.2542 85.6955L43.342 88.5025L44.0115 84.8202Z" fill="url(#paint1_linear_187_2640)"/>
<path fill-rule="evenodd" clip-rule="evenodd" d="M31.7512 71.2287C31.7512 72.1132 31.0341 72.8303 30.1496 72.8303C29.265 72.8303 28.548 72.1132 28.548 71.2287C28.548 70.3441 29.265 69.6271 30.1496 69.6271C31.0341 69.6271 31.7512 70.3441 31.7512 71.2287ZM38.1577 71.2287C38.1577 72.1132 37.4406 72.8303 36.5561 72.8303C35.6715 72.8303 34.9544 72.1132 34.9544 71.2287C34.9544 70.3441 35.6715 69.6271 36.5561 69.6271C37.4406 69.6271 38.1577 70.3441 38.1577 71.2287ZM42.9625 72.8303C43.8471 72.8303 44.5641 72.1132 44.5641 71.2287C44.5641 70.3441 43.8471 69.6271 42.9625 69.6271C42.078 69.6271 41.3609 70.3441 41.3609 71.2287C41.3609 72.1132 42.078 72.8303 42.9625 72.8303Z" fill="white"/>
<path d="M163.074 52H192.532L197.655 57.7635V100.67H163.074V52Z" fill="url(#paint2_linear_187_2640)"/>
<path d="M197.655 57.7635L192.532 52V57.7635H197.655Z" fill="url(#paint3_linear_187_2640)"/>
<rect x="184.847" y="69.931" width="3.84236" height="19.2118" fill="white"/>
<rect x="178.443" y="76.335" width="3.84236" height="12.8079" fill="white"/>
<rect x="172.039" y="80.1774" width="3.84236" height="8.96552" fill="white"/>
<defs>
<linearGradient id="paint0_linear_187_2640" x1="114.161" y1="67.3694" x2="114.161" y2="152.351" gradientUnits="userSpaceOnUse">
<stop stop-color="#05A0F8"/>
<stop offset="1" stop-color="#0DCEF8"/>
</linearGradient>
<linearGradient id="paint1_linear_187_2640" x1="36.71" y1="58.4039" x2="36.71" y2="88.5024" gradientUnits="userSpaceOnUse">
<stop stop-color="#05A0F8"/>
<stop offset="1" stop-color="#0DCEF8"/>
</linearGradient>
<linearGradient id="paint2_linear_187_2640" x1="180.364" y1="52" x2="180.364" y2="100.67" gradientUnits="userSpaceOnUse">
<stop stop-color="#05A0F8"/>
<stop offset="1" stop-color="#0DCEF8"/>
</linearGradient>
<linearGradient id="paint3_linear_187_2640" x1="195.094" y1="52" x2="195.094" y2="57.7635" gradientUnits="userSpaceOnUse">
<stop stop-color="#05A0F8"/>
<stop offset="1" stop-color="#0DCEF8"/>
</linearGradient>
</defs>
</svg>
