<svg width="224" height="202" viewBox="0 0 224 202" fill="none" xmlns="http://www.w3.org/2000/svg">
<path fill-rule="evenodd" clip-rule="evenodd" d="M68.523 124.746L54.0705 139.847C53.3111 140.716 53.9282 142.074 55.0821 142.074L189.364 142.074C190.518 142.074 191.135 140.716 190.376 139.847L175.923 124.746V62.0386C175.923 61.2966 175.322 60.6951 174.58 60.6951H69.8665C69.1245 60.6951 68.523 61.2966 68.523 62.0386V124.746ZM177.267 124.335L191.387 138.963C192.906 140.7 191.672 143.418 189.364 143.418L55.0821 143.418C52.7743 143.418 51.5401 140.7 53.0588 138.963L67.1794 124.129V62.0386C67.1794 60.5546 68.3825 59.3516 69.8665 59.3516H174.58C176.064 59.3516 177.267 60.5546 177.267 62.0386V124.335Z" fill="url(#paint0_linear_115_2552)"/>
<path fill-rule="evenodd" clip-rule="evenodd" d="M73.1804 63.3548C72.0759 63.3548 71.1804 64.2502 71.1804 65.3548V121.401H173.261V65.3548C173.261 64.2502 172.366 63.3548 171.261 63.3548H73.1804ZM132.229 86.6288C132.229 91.0506 128.644 94.6352 124.223 94.6352C119.801 94.6352 116.216 91.0506 116.216 86.6288C116.216 82.2071 119.801 78.6225 124.223 78.6225C128.644 78.6225 132.229 82.2071 132.229 86.6288ZM112.213 99.1374C112.213 97.7567 113.332 96.6374 114.713 96.6374H133.732C135.112 96.6374 136.232 97.7567 136.232 99.1374V105.645C136.232 106.198 135.784 106.645 135.232 106.645H113.213C112.66 106.645 112.213 106.198 112.213 105.645V99.1374Z" fill="url(#paint1_linear_115_2552)"/>
<path fill-rule="evenodd" clip-rule="evenodd" d="M60.5595 121.195C72.5475 121.195 82.2657 111.302 82.2657 99.0975C82.2657 86.8934 72.5475 77 60.5595 77C48.5715 77 38.8533 86.8934 38.8533 99.0975C38.8533 111.302 48.5715 121.195 60.5595 121.195ZM35.9051 127.531C31.5392 127.531 28 131.134 28 135.579V150.551C28 152.456 29.5168 154 31.3879 154H89.6121C91.4832 154 93 152.456 93 150.551V135.579C93 131.134 89.4608 127.531 85.0949 127.531H35.9051Z" fill="url(#paint2_linear_115_2552)"/>
<path fill-rule="evenodd" clip-rule="evenodd" d="M85.0367 99.2179C85.0367 112.593 74.0785 123.436 60.5608 123.436C47.0431 123.436 36.0848 112.593 36.0848 99.2179C36.0848 85.8427 47.0431 75 60.5608 75C74.0785 75 85.0367 85.8427 85.0367 99.2179ZM25 135.432C25 129.759 29.6475 125.161 35.3804 125.161H85.6196C91.3525 125.161 96 129.759 96 135.432V150.294C96 153.445 93.4181 156 90.2331 156H30.7669C27.5819 156 25 153.445 25 150.294V135.432ZM82.73 99.2179C82.73 111.332 72.8045 121.153 60.5608 121.153C48.3171 121.153 38.3916 111.332 38.3916 99.2179C38.3916 87.1033 48.3171 77.2824 60.5608 77.2824C72.8045 77.2824 82.73 87.1033 82.73 99.2179ZM27.3068 135.432C27.3068 131.02 30.9215 127.443 35.3804 127.443H85.6196C90.0785 127.443 93.6932 131.02 93.6932 135.432V150.294C93.6932 152.185 92.1441 153.718 90.2331 153.718H30.7669C28.8559 153.718 27.3068 152.185 27.3068 150.294V135.432Z" fill="white"/>
<path fill-rule="evenodd" clip-rule="evenodd" d="M161.04 44.382C159.067 44.382 157.467 45.9817 157.467 47.955V68.0596C157.467 70.0329 159.067 71.6325 161.04 71.6325H162.708V76.8731L167.949 71.6325H200.01C201.984 71.6325 203.583 70.0329 203.583 68.0596V47.955C203.583 45.9817 201.984 44.382 200.01 44.382H161.04Z" fill="white"/>
<path fill-rule="evenodd" clip-rule="evenodd" d="M162.708 76.8731V71.6325H161.04C159.067 71.6325 157.467 70.0328 157.467 68.0595V47.9549C157.467 45.9817 159.067 44.382 161.04 44.382H200.011C201.984 44.382 203.583 45.9817 203.583 47.955V68.0595C203.583 70.0328 201.984 71.6325 200.011 71.6325H167.949L162.708 76.8731ZM168.936 74.0145H200.011C203.299 74.0145 205.965 71.3484 205.965 68.0595V47.955C205.965 44.6661 203.299 42 200.011 42H161.04C157.751 42 155.085 44.6661 155.085 47.9549V68.0595C155.085 71.1068 157.374 73.6195 160.326 73.9721V82.6237L168.936 74.0145Z" fill="url(#paint3_linear_115_2552)"/>
<path fill-rule="evenodd" clip-rule="evenodd" d="M174.917 58.8004C174.917 59.8329 174.079 60.6699 173.047 60.6699C172.014 60.6699 171.177 59.8329 171.177 58.8004C171.177 57.7678 172.014 56.9308 173.047 56.9308C174.079 56.9308 174.917 57.7678 174.917 58.8004ZM182.395 58.8004C182.395 59.8329 181.558 60.6699 180.525 60.6699C179.493 60.6699 178.656 59.8329 178.656 58.8004C178.656 57.7678 179.493 56.9308 180.525 56.9308C181.558 56.9308 182.395 57.7678 182.395 58.8004ZM188.004 60.6699C189.036 60.6699 189.873 59.8329 189.873 58.8004C189.873 57.7678 189.036 56.9308 188.004 56.9308C186.971 56.9308 186.134 57.7678 186.134 58.8004C186.134 59.8329 186.971 60.6699 188.004 60.6699Z" fill="url(#paint4_linear_115_2552)"/>
<defs>
<linearGradient id="paint0_linear_115_2552" x1="122.223" y1="59.3516" x2="122.223" y2="143.418" gradientUnits="userSpaceOnUse">
<stop stop-color="#05A0F8"/>
<stop offset="1" stop-color="#0DCEF8"/>
</linearGradient>
<linearGradient id="paint1_linear_115_2552" x1="122.221" y1="63.3548" x2="122.221" y2="121.401" gradientUnits="userSpaceOnUse">
<stop stop-color="#05A0F8"/>
<stop offset="1" stop-color="#0DCEF8"/>
</linearGradient>
<linearGradient id="paint2_linear_115_2552" x1="60.5" y1="77" x2="60.5" y2="154" gradientUnits="userSpaceOnUse">
<stop stop-color="#05A0F8"/>
<stop offset="1" stop-color="#0DCEF8"/>
</linearGradient>
<linearGradient id="paint3_linear_115_2552" x1="180.525" y1="42" x2="180.525" y2="82.6237" gradientUnits="userSpaceOnUse">
<stop stop-color="#05A0F8"/>
<stop offset="1" stop-color="#0DCEF8"/>
</linearGradient>
<linearGradient id="paint4_linear_115_2552" x1="180.525" y1="56.9308" x2="180.525" y2="60.6699" gradientUnits="userSpaceOnUse">
<stop stop-color="#05A0F8"/>
<stop offset="1" stop-color="#0DCEF8"/>
</linearGradient>
</defs>
</svg>
