<svg width="224" height="202" viewBox="0 0 224 202" fill="none" xmlns="http://www.w3.org/2000/svg">
<path opacity="0.4" fill-rule="evenodd" clip-rule="evenodd" d="M65.761 41.5414L65.761 41.0438L66.761 41.0438L66.761 41.5414L65.761 41.5414ZM65.761 43.5315L65.761 42.5365L66.761 42.5365L66.761 43.5315L65.761 43.5315ZM65.761 45.5217L65.761 44.5266L66.761 44.5266L66.761 45.5217L65.761 45.5217ZM65.761 47.5119L65.761 46.5168L66.761 46.5168L66.761 47.5119L65.761 47.5119ZM65.761 49.5021L65.761 48.507L66.761 48.507L66.761 49.5021L65.761 49.5021ZM65.761 51.4923L65.761 50.4972L66.761 50.4972L66.761 51.4923L65.761 51.4923ZM65.761 53.4824L65.761 52.4873L66.761 52.4873L66.761 53.4824L65.761 53.4824ZM65.761 55.4726L65.761 54.4775L66.761 54.4775L66.761 55.4726L65.761 55.4726ZM65.761 57.4628L65.761 56.4677L66.761 56.4677L66.761 57.4628L65.761 57.4628ZM65.761 59.453L65.761 58.4579L66.761 58.4579L66.761 59.453L65.761 59.453ZM65.761 61.4431L65.761 60.4481L66.761 60.4481L66.761 61.4431L65.761 61.4431ZM65.761 63.4333L65.761 62.4382L66.761 62.4382L66.761 63.4333L65.761 63.4333ZM65.761 65.4235L65.761 64.4284L66.761 64.4284L66.761 65.4235L65.761 65.4235ZM65.761 67.4137L65.761 66.4186L66.761 66.4186L66.761 67.4137L65.761 67.4137ZM65.761 69.4038L65.761 68.4088L66.761 68.4088L66.761 69.4038L65.761 69.4038ZM65.761 71.394L65.761 70.3989L66.761 70.3989L66.761 71.394L65.761 71.394ZM65.761 73.3842L65.761 72.3891L66.761 72.3891L66.761 73.3842L65.761 73.3842ZM65.761 75.3744L65.761 74.3793L66.761 74.3793L66.761 75.3744L65.761 75.3744ZM65.761 77.3646L65.761 76.3695L66.761 76.3695L66.761 77.3646L65.761 77.3646ZM65.761 79.3547L65.761 78.3597L66.761 78.3597L66.761 79.3547L65.761 79.3547ZM65.761 81.3449L65.761 80.3498L66.761 80.3498L66.761 81.3449L65.761 81.3449ZM65.761 83.3351L65.761 82.34L66.761 82.34L66.761 83.3351L65.761 83.3351ZM65.761 85.3253L65.761 84.3302L66.761 84.3302L66.761 85.3253L65.761 85.3253ZM65.761 87.3155L65.761 86.3204L66.761 86.3204L66.761 87.3155L65.761 87.3155ZM65.761 89.3057L65.761 88.3106L66.761 88.3106L66.761 89.3057L65.761 89.3057ZM65.761 91.2958L65.761 90.3007L66.761 90.3007L66.761 91.2958L65.761 91.2958ZM65.761 93.286L65.761 92.2909L66.761 92.2909L66.761 93.286L65.761 93.286ZM65.761 95.2762L65.761 94.2811L66.761 94.2811L66.761 95.2762L65.761 95.2762ZM65.761 97.2664L65.761 96.2713L66.761 96.2713L66.761 97.2664L65.761 97.2664ZM65.761 99.2566L65.761 98.2615L66.761 98.2615L66.761 99.2566L65.761 99.2566ZM65.761 101.247L65.761 100.252L66.761 100.252L66.761 101.247L65.761 101.247ZM65.761 103.237L65.761 102.242L66.761 102.242L66.761 103.237L65.761 103.237ZM65.761 105.227L65.761 104.232L66.761 104.232L66.761 105.227L65.761 105.227ZM65.761 107.217L65.761 106.222L66.761 106.222L66.761 107.217L65.761 107.217ZM65.761 109.207L65.761 108.212L66.761 108.212L66.761 109.207L65.761 109.207ZM65.761 111.198L65.761 110.203L66.761 110.203L66.761 111.198L65.761 111.198ZM65.761 113.188L65.761 112.193L66.761 112.193L66.761 113.188L65.761 113.188ZM65.761 115.178L65.761 114.183L66.761 114.183L66.761 115.178L65.761 115.178ZM65.761 117.168L65.761 116.173L66.761 116.173L66.761 117.168L65.761 117.168ZM65.761 119.158L65.761 118.163L66.761 118.163L66.761 119.158L65.761 119.158ZM65.761 121.148L65.761 120.153L66.761 120.153L66.761 121.148L65.761 121.148ZM65.761 123.139L65.761 122.144L66.761 122.144L66.761 123.139L65.761 123.139ZM65.761 125.129L65.761 124.134L66.761 124.134L66.761 125.129L65.761 125.129ZM65.761 127.119L65.761 126.124L66.761 126.124L66.761 127.119L65.761 127.119ZM65.761 129.109L65.761 128.114L66.761 128.114L66.761 129.109L65.761 129.109ZM65.761 131.099L65.761 130.104L66.761 130.104L66.761 131.099L65.761 131.099ZM65.761 133.09L65.761 132.094L66.761 132.094L66.761 133.09L65.761 133.09ZM65.761 135.08L65.761 134.085L66.761 134.085L66.761 135.08L65.761 135.08ZM65.761 137.07L65.761 136.075L66.761 136.075L66.761 137.07L65.761 137.07ZM65.761 139.06L65.761 138.065L66.761 138.065L66.761 139.06L65.761 139.06ZM65.761 141.05L65.761 140.055L66.761 140.055L66.761 141.05L65.761 141.05ZM65.761 143.04L65.761 142.045L66.761 142.045L66.761 143.04L65.761 143.04ZM65.761 145.031L65.761 144.035L66.761 144.035L66.761 145.031L65.761 145.031ZM65.761 147.021L65.761 146.026L66.761 146.026L66.761 147.021L65.761 147.021ZM65.761 149.011L65.761 148.016L66.761 148.016L66.761 149.011L65.761 149.011ZM65.761 151.001L65.761 150.006L66.761 150.006L66.761 151.001L65.761 151.001ZM65.761 152.991L65.761 151.996L66.761 151.996L66.761 152.991L65.761 152.991ZM65.761 154.981L65.761 153.986L66.761 153.986L66.761 154.981L65.761 154.981ZM65.761 156.972L65.761 155.977L66.761 155.977L66.761 156.972L65.761 156.972ZM65.761 158.962L65.761 157.967L66.761 157.967L66.761 158.962L65.761 158.962ZM65.761 160.454L65.761 159.957L66.761 159.957L66.761 160.454L65.761 160.454Z" fill="url(#paint0_linear_187_2840)"/>
<path opacity="0.4" fill-rule="evenodd" clip-rule="evenodd" d="M128.746 100.979H129.243V101.979H128.746V100.979ZM126.756 100.979H127.751V101.979H126.756V100.979ZM124.766 100.979H125.761V101.979H124.766V100.979ZM122.776 100.979H123.771V101.979H122.776V100.979ZM120.786 100.979H121.781V101.979H120.786V100.979ZM118.796 100.979H119.791V101.979H118.796V100.979ZM116.806 100.979H117.801V101.979H116.806V100.979ZM114.816 100.979H115.811V101.979H114.816V100.979ZM112.826 100.979H113.821V101.979H112.826V100.979ZM110.836 100.979H111.831V101.979H110.836V100.979ZM108.846 100.979H109.841V101.979H108.846V100.979ZM106.856 100.979H107.851V101.979H106.856V100.979ZM104.866 100.979H105.861V101.979H104.866V100.979ZM102.876 100.979H103.871V101.979H102.876V100.979ZM100.886 100.979H101.881V101.979H100.886V100.979ZM98.8956 100.979H99.8906V101.979H98.8956V100.979ZM96.9056 100.979H97.9006V101.979H96.9056V100.979ZM94.9156 100.979H95.9106V101.979H94.9156V100.979ZM92.9256 100.979H93.9206V101.979H92.9256V100.979ZM90.9356 100.979H91.9306V101.979H90.9356V100.979ZM88.9456 100.979H89.9406V101.979H88.9456V100.979ZM86.9556 100.979H87.9506V101.979H86.9556V100.979ZM84.9656 100.979H85.9606V101.979H84.9656V100.979ZM82.9755 100.979H83.9705V101.979H82.9755V100.979ZM80.9855 100.979H81.9805V101.979H80.9855V100.979ZM78.9955 100.979H79.9905V101.979H78.9955V100.979ZM77.0055 100.979H78.0005V101.979H77.0055V100.979ZM75.0155 100.979H76.0105V101.979H75.0155V100.979ZM73.0255 100.979H74.0205V101.979H73.0255V100.979ZM71.0355 100.979H72.0305V101.979L71.0355 101.979V100.979ZM69.0454 100.979H70.0405V101.979H69.0454V100.979ZM67.0554 100.979H68.0504V101.979H67.0554V100.979ZM65.0654 100.979H66.0604V101.979H65.0654V100.979ZM63.0754 100.979H64.0704V101.979H63.0754V100.979ZM61.0854 100.979H62.0804V101.979H61.0854V100.979ZM59.0954 100.979H60.0904V101.979H59.0954V100.979ZM57.1054 100.979H58.1004V101.979H57.1054V100.979ZM55.1154 100.979H56.1104V101.979H55.1154V100.979ZM53.1254 100.979H54.1204V101.979H53.1254V100.979ZM51.1354 100.979H52.1304V101.979H51.1354V100.979ZM49.1454 100.979H50.1404V101.979H49.1454V100.979ZM47.1554 100.979H48.1504V101.979H47.1554V100.979ZM45.1654 100.979H46.1604V101.979H45.1654V100.979ZM43.1754 100.979H44.1704V101.979H43.1754V100.979ZM41.1854 100.979H42.1804V101.979H41.1854V100.979ZM39.1954 100.979H40.1904V101.979H39.1954V100.979ZM37.2053 100.979H38.2003V101.979H37.2053V100.979ZM35.2153 100.979H36.2103V101.979H35.2153V100.979ZM33.2253 100.979H34.2203V101.979H33.2253V100.979ZM31.2353 100.979H32.2303V101.979H31.2353V100.979ZM29.2453 100.979H30.2403V101.979H29.2453V100.979ZM27.2553 100.979H28.2503V101.979H27.2553V100.979ZM25.2653 100.979H26.2603V101.979H25.2653V100.979ZM23.2753 100.979H24.2703V101.979H23.2753V100.979ZM21.2853 100.979H22.2803V101.979H21.2853V100.979ZM19.2953 100.979H20.2903V101.979H19.2953V100.979ZM17.3053 100.979H18.3003V101.979H17.3053V100.979ZM15.3153 100.979H16.3103V101.979H15.3153V100.979ZM13.3253 100.979H14.3203V101.979H13.3253V100.979ZM11.3353 100.979H12.3303V101.979H11.3353V100.979ZM9.34527 100.979H10.3403V101.979H9.34527V100.979ZM7.35526 100.979H8.35027V101.979H7.35526V100.979ZM5.86269 100.979H6.36026V101.979H5.86269V100.979Z" fill="url(#paint1_linear_187_2840)"/>
<path opacity="0.2" d="M66.4319 55.8024L17.4601 102.091L66.4319 159.784L130.833 101.42L66.4319 55.8024Z" fill="url(#paint2_linear_187_2840)"/>
<path fill-rule="evenodd" clip-rule="evenodd" d="M31.1255 119.854L21.4378 129.977C20.9288 130.559 21.3424 131.47 22.1159 131.47L112.127 131.47C112.901 131.47 113.314 130.559 112.805 129.977L103.117 119.854V77.8208C103.117 77.3234 102.714 76.9202 102.217 76.9202H32.0261C31.5287 76.9202 31.1255 77.3234 31.1255 77.8208V119.854ZM104.018 119.579L113.483 129.384C114.501 130.549 113.674 132.371 112.127 132.371L22.1159 132.371C20.5689 132.371 19.7417 130.549 20.7597 129.384L30.2249 119.441V77.8208C30.2249 76.8261 31.0313 76.0197 32.0261 76.0197H102.217C103.212 76.0197 104.018 76.8261 104.018 77.8208V119.579Z" fill="url(#paint3_linear_187_2840)"/>
<path fill-rule="evenodd" clip-rule="evenodd" d="M34.9078 78.7032C33.8033 78.7032 32.9078 79.5987 32.9078 80.7032V117.612H101.334V80.7032C101.334 79.5987 100.439 78.7032 99.3342 78.7032H34.9078ZM73.8296 89.4363C73.8296 92.4003 71.4268 94.803 68.4629 94.803C65.4989 94.803 63.0961 92.4003 63.0961 89.4363C63.0961 86.4723 65.4989 84.0695 68.4629 84.0695C71.4268 84.0695 73.8296 86.4723 73.8296 89.4363ZM60.4126 98.6452C60.4126 97.2645 61.5319 96.1452 62.9126 96.1452H74.0129C75.3936 96.1452 76.5129 97.2645 76.5129 98.6452V101.854C76.5129 102.406 76.0652 102.854 75.5129 102.854H61.4126C60.8603 102.854 60.4126 102.406 60.4126 101.854V98.6452ZM52.021 105.537C51.4688 105.537 51.021 105.985 51.021 106.537V108.562C51.021 109.114 51.4688 109.562 52.021 109.562H84.9051C85.4573 109.562 85.9051 109.114 85.9051 108.562V106.537C85.9051 105.985 85.4573 105.537 84.9051 105.537H52.021ZM51.021 111.904C51.021 111.351 51.4688 110.904 52.021 110.904H84.9051C85.4573 110.904 85.9051 111.351 85.9051 111.904V113.929C85.9051 114.481 85.4573 114.929 84.9051 114.929H52.021C51.4688 114.929 51.021 114.481 51.021 113.929V111.904Z" fill="url(#paint4_linear_187_2840)"/>
<circle cx="66.2388" cy="39.7387" r="1.80118" fill="url(#paint5_linear_187_2840)"/>
<circle cx="130.199" cy="101.456" r="1.80118" fill="url(#paint6_linear_187_2840)"/>
<circle cx="5.8627" cy="100.997" r="1.80118" fill="url(#paint7_linear_187_2840)"/>
<circle cx="66.2388" cy="161.833" r="1.80118" fill="url(#paint8_linear_187_2840)"/>
<path fill-rule="evenodd" clip-rule="evenodd" d="M154.5 78C154.5 76.6193 155.62 75.5 157 75.5H191C192.381 75.5 193.5 76.6193 193.5 78V93H192.5V78C192.5 77.1716 191.829 76.5 191 76.5H157C156.172 76.5 155.5 77.1716 155.5 78V136H154.5V78Z" fill="url(#paint9_linear_187_2840)"/>
<path d="M162 83C162 82.4477 162.448 82 163 82H167C167.553 82 168 82.4477 168 83V87C168 87.5523 167.553 88 167 88H163C162.448 88 162 87.5523 162 87V83Z" fill="url(#paint10_linear_187_2840)"/>
<path d="M171 83C171 82.4477 171.448 82 172 82H176C176.553 82 177 82.4477 177 83V87C177 87.5523 176.553 88 176 88H172C171.448 88 171 87.5523 171 87V83Z" fill="url(#paint11_linear_187_2840)"/>
<path d="M180 83C180 82.4477 180.448 82 181 82H185C185.553 82 186 82.4477 186 83V87C186 87.5523 185.553 88 185 88H181C180.448 88 180 87.5523 180 87V83Z" fill="url(#paint12_linear_187_2840)"/>
<path d="M162 93C162 92.4477 162.448 92 163 92H167C167.553 92 168 92.4477 168 93V97C168 97.5523 167.553 98 167 98H163C162.448 98 162 97.5523 162 97V93Z" fill="url(#paint13_linear_187_2840)"/>
<path d="M171 93C171 92.4477 171.448 92 172 92H176C176.553 92 177 92.4477 177 93V97C177 97.5523 176.553 98 176 98H172C171.448 98 171 97.5523 171 97V93Z" fill="url(#paint14_linear_187_2840)"/>
<path d="M180 93C180 92.4477 180.448 92 181 92H185C185.553 92 186 92.4477 186 93V97C186 97.5523 185.553 98 185 98H181C180.448 98 180 97.5523 180 97V93Z" fill="url(#paint15_linear_187_2840)"/>
<path d="M162 103C162 102.448 162.448 102 163 102H167C167.553 102 168 102.448 168 103V107C168 107.552 167.553 108 167 108H163C162.448 108 162 107.552 162 107V103Z" fill="url(#paint16_linear_187_2840)"/>
<path d="M171 103C171 102.448 171.448 102 172 102H176C176.553 102 177 102.448 177 103V107C177 107.552 176.553 108 176 108H172C171.448 108 171 107.552 171 107V103Z" fill="url(#paint17_linear_187_2840)"/>
<path d="M180 103C180 102.448 180.448 102 181 102H185C185.553 102 186 102.448 186 103V107C186 107.552 185.553 108 185 108H181C180.448 108 180 107.552 180 107V103Z" fill="url(#paint18_linear_187_2840)"/>
<path d="M162 113C162 112.448 162.448 112 163 112H167C167.553 112 168 112.448 168 113V117C168 117.552 167.553 118 167 118H163C162.448 118 162 117.552 162 117V113Z" fill="url(#paint19_linear_187_2840)"/>
<path d="M171 113C171 112.448 171.448 112 172 112H176C176.553 112 177 112.448 177 113V117C177 117.552 176.553 118 176 118H172C171.448 118 171 117.552 171 117V113Z" fill="url(#paint20_linear_187_2840)"/>
<path d="M180 113C180 112.448 180.448 112 181 112H185C185.553 112 186 112.448 186 113V117C186 117.552 185.553 118 185 118H181C180.448 118 180 117.552 180 117V113Z" fill="url(#paint21_linear_187_2840)"/>
<path d="M162 123C162 122.448 162.448 122 163 122H167C167.553 122 168 122.448 168 123V127C168 127.552 167.553 128 167 128H163C162.448 128 162 127.552 162 127V123Z" fill="url(#paint22_linear_187_2840)"/>
<path d="M171 123C171 122.448 171.448 122 172 122H176C176.553 122 177 122.448 177 123V127C177 127.552 176.553 128 176 128H172C171.448 128 171 127.552 171 127V123Z" fill="url(#paint23_linear_187_2840)"/>
<path d="M180 123C180 122.448 180.448 122 181 122H185C185.553 122 186 122.448 186 123V127C186 127.552 185.553 128 185 128H181C180.448 128 180 127.552 180 127V123Z" fill="url(#paint24_linear_187_2840)"/>
<path d="M194 103C194 102.448 194.448 102 195 102H213C213.553 102 214 102.448 214 103V106C214 106.552 213.553 107 213 107H195C194.448 107 194 106.552 194 106V103Z" fill="url(#paint25_linear_187_2840)"/>
<path d="M194 110C194 109.448 194.448 109 195 109H213C213.553 109 214 109.448 214 110V113C214 113.552 213.553 114 213 114H195C194.448 114 194 113.552 194 113V110Z" fill="url(#paint26_linear_187_2840)"/>
<path d="M194 117C194 116.448 194.448 116 195 116H213C213.553 116 214 116.448 214 117V120C214 120.552 213.553 121 213 121H195C194.448 121 194 120.552 194 120V117Z" fill="url(#paint27_linear_187_2840)"/>
<path d="M194 124C194 123.448 194.448 123 195 123H213C213.553 123 214 123.448 214 124V127C214 127.552 213.553 128 213 128H195C194.448 128 194 127.552 194 127V124Z" fill="url(#paint28_linear_187_2840)"/>
<path fill-rule="evenodd" clip-rule="evenodd" d="M188.5 98C188.5 96.6193 189.62 95.5 191 95.5H217C218.381 95.5 219.5 96.6193 219.5 98V136H218.5V98C218.5 97.1716 217.829 96.5 217 96.5H191C190.172 96.5 189.5 97.1716 189.5 98V136H188.5V98Z" fill="url(#paint29_linear_187_2840)"/>
<path fill-rule="evenodd" clip-rule="evenodd" d="M155 102H104V100H155V102Z" fill="url(#paint30_linear_187_2840)"/>
<circle cx="129.5" cy="100.5" r="15.5" fill="url(#paint31_linear_187_2840)"/>
<path fill-rule="evenodd" clip-rule="evenodd" d="M125.664 98.2354C124.717 99.1822 124.717 100.717 125.664 101.664L129.95 105.95L133.378 102.521L133.378 102.521L134.236 101.664C135.182 100.717 135.182 99.182 134.236 98.2353C133.289 97.2885 131.754 97.2885 130.807 98.2353L129.95 99.0924L129.093 98.2354C128.146 97.2887 126.611 97.2887 125.664 98.2354Z" fill="white"/>
<defs>
<linearGradient id="paint0_linear_187_2840" x1="66.761" y1="100.749" x2="65.761" y2="100.749" gradientUnits="userSpaceOnUse">
<stop stop-color="#05A0F8"/>
<stop offset="1" stop-color="#0DCEF8"/>
</linearGradient>
<linearGradient id="paint1_linear_187_2840" x1="67.553" y1="101.979" x2="67.553" y2="100.979" gradientUnits="userSpaceOnUse">
<stop stop-color="#05A0F8"/>
<stop offset="1" stop-color="#0DCEF8"/>
</linearGradient>
<linearGradient id="paint2_linear_187_2840" x1="74.1467" y1="55.8024" x2="74.1467" y2="159.784" gradientUnits="userSpaceOnUse">
<stop stop-color="#05A0F8"/>
<stop offset="1" stop-color="#0DCEF8"/>
</linearGradient>
<linearGradient id="paint3_linear_187_2840" x1="67.1215" y1="76.0197" x2="67.1215" y2="132.371" gradientUnits="userSpaceOnUse">
<stop stop-color="#05A0F8"/>
<stop offset="1" stop-color="#0DCEF8"/>
</linearGradient>
<linearGradient id="paint4_linear_187_2840" x1="67.121" y1="78.7032" x2="67.121" y2="117.612" gradientUnits="userSpaceOnUse">
<stop stop-color="#05A0F8"/>
<stop offset="1" stop-color="#0DCEF8"/>
</linearGradient>
<linearGradient id="paint5_linear_187_2840" x1="66.2388" y1="37.9375" x2="66.2388" y2="41.5399" gradientUnits="userSpaceOnUse">
<stop stop-color="#05A0F8"/>
<stop offset="1" stop-color="#0DCEF8"/>
</linearGradient>
<linearGradient id="paint6_linear_187_2840" x1="130.199" y1="99.6553" x2="130.199" y2="103.258" gradientUnits="userSpaceOnUse">
<stop stop-color="#05A0F8"/>
<stop offset="1" stop-color="#0DCEF8"/>
</linearGradient>
<linearGradient id="paint7_linear_187_2840" x1="5.8627" y1="99.1959" x2="5.8627" y2="102.798" gradientUnits="userSpaceOnUse">
<stop stop-color="#05A0F8"/>
<stop offset="1" stop-color="#0DCEF8"/>
</linearGradient>
<linearGradient id="paint8_linear_187_2840" x1="66.2388" y1="160.031" x2="66.2388" y2="163.634" gradientUnits="userSpaceOnUse">
<stop stop-color="#05A0F8"/>
<stop offset="1" stop-color="#0DCEF8"/>
</linearGradient>
<linearGradient id="paint9_linear_187_2840" x1="174" y1="75.5" x2="174" y2="136" gradientUnits="userSpaceOnUse">
<stop stop-color="#05A0F8"/>
<stop offset="1" stop-color="#0DCEF8"/>
</linearGradient>
<linearGradient id="paint10_linear_187_2840" x1="165" y1="82" x2="165" y2="88" gradientUnits="userSpaceOnUse">
<stop stop-color="#05A0F8"/>
<stop offset="1" stop-color="#0DCEF8"/>
</linearGradient>
<linearGradient id="paint11_linear_187_2840" x1="174" y1="82" x2="174" y2="88" gradientUnits="userSpaceOnUse">
<stop stop-color="#05A0F8"/>
<stop offset="1" stop-color="#0DCEF8"/>
</linearGradient>
<linearGradient id="paint12_linear_187_2840" x1="183" y1="82" x2="183" y2="88" gradientUnits="userSpaceOnUse">
<stop stop-color="#05A0F8"/>
<stop offset="1" stop-color="#0DCEF8"/>
</linearGradient>
<linearGradient id="paint13_linear_187_2840" x1="165" y1="92" x2="165" y2="98" gradientUnits="userSpaceOnUse">
<stop stop-color="#05A0F8"/>
<stop offset="1" stop-color="#0DCEF8"/>
</linearGradient>
<linearGradient id="paint14_linear_187_2840" x1="174" y1="92" x2="174" y2="98" gradientUnits="userSpaceOnUse">
<stop stop-color="#05A0F8"/>
<stop offset="1" stop-color="#0DCEF8"/>
</linearGradient>
<linearGradient id="paint15_linear_187_2840" x1="183" y1="92" x2="183" y2="98" gradientUnits="userSpaceOnUse">
<stop stop-color="#05A0F8"/>
<stop offset="1" stop-color="#0DCEF8"/>
</linearGradient>
<linearGradient id="paint16_linear_187_2840" x1="165" y1="102" x2="165" y2="108" gradientUnits="userSpaceOnUse">
<stop stop-color="#05A0F8"/>
<stop offset="1" stop-color="#0DCEF8"/>
</linearGradient>
<linearGradient id="paint17_linear_187_2840" x1="174" y1="102" x2="174" y2="108" gradientUnits="userSpaceOnUse">
<stop stop-color="#05A0F8"/>
<stop offset="1" stop-color="#0DCEF8"/>
</linearGradient>
<linearGradient id="paint18_linear_187_2840" x1="183" y1="102" x2="183" y2="108" gradientUnits="userSpaceOnUse">
<stop stop-color="#05A0F8"/>
<stop offset="1" stop-color="#0DCEF8"/>
</linearGradient>
<linearGradient id="paint19_linear_187_2840" x1="165" y1="112" x2="165" y2="118" gradientUnits="userSpaceOnUse">
<stop stop-color="#05A0F8"/>
<stop offset="1" stop-color="#0DCEF8"/>
</linearGradient>
<linearGradient id="paint20_linear_187_2840" x1="174" y1="112" x2="174" y2="118" gradientUnits="userSpaceOnUse">
<stop stop-color="#05A0F8"/>
<stop offset="1" stop-color="#0DCEF8"/>
</linearGradient>
<linearGradient id="paint21_linear_187_2840" x1="183" y1="112" x2="183" y2="118" gradientUnits="userSpaceOnUse">
<stop stop-color="#05A0F8"/>
<stop offset="1" stop-color="#0DCEF8"/>
</linearGradient>
<linearGradient id="paint22_linear_187_2840" x1="165" y1="122" x2="165" y2="128" gradientUnits="userSpaceOnUse">
<stop stop-color="#05A0F8"/>
<stop offset="1" stop-color="#0DCEF8"/>
</linearGradient>
<linearGradient id="paint23_linear_187_2840" x1="174" y1="122" x2="174" y2="128" gradientUnits="userSpaceOnUse">
<stop stop-color="#05A0F8"/>
<stop offset="1" stop-color="#0DCEF8"/>
</linearGradient>
<linearGradient id="paint24_linear_187_2840" x1="183" y1="122" x2="183" y2="128" gradientUnits="userSpaceOnUse">
<stop stop-color="#05A0F8"/>
<stop offset="1" stop-color="#0DCEF8"/>
</linearGradient>
<linearGradient id="paint25_linear_187_2840" x1="204" y1="102" x2="204" y2="107" gradientUnits="userSpaceOnUse">
<stop stop-color="#05A0F8"/>
<stop offset="1" stop-color="#0DCEF8"/>
</linearGradient>
<linearGradient id="paint26_linear_187_2840" x1="204" y1="109" x2="204" y2="114" gradientUnits="userSpaceOnUse">
<stop stop-color="#05A0F8"/>
<stop offset="1" stop-color="#0DCEF8"/>
</linearGradient>
<linearGradient id="paint27_linear_187_2840" x1="204" y1="116" x2="204" y2="121" gradientUnits="userSpaceOnUse">
<stop stop-color="#05A0F8"/>
<stop offset="1" stop-color="#0DCEF8"/>
</linearGradient>
<linearGradient id="paint28_linear_187_2840" x1="204" y1="123" x2="204" y2="128" gradientUnits="userSpaceOnUse">
<stop stop-color="#05A0F8"/>
<stop offset="1" stop-color="#0DCEF8"/>
</linearGradient>
<linearGradient id="paint29_linear_187_2840" x1="204" y1="95.5" x2="204" y2="136" gradientUnits="userSpaceOnUse">
<stop stop-color="#05A0F8"/>
<stop offset="1" stop-color="#0DCEF8"/>
</linearGradient>
<linearGradient id="paint30_linear_187_2840" x1="129.5" y1="100" x2="129.5" y2="102" gradientUnits="userSpaceOnUse">
<stop stop-color="#05A0F8"/>
<stop offset="1" stop-color="#0DCEF8"/>
</linearGradient>
<linearGradient id="paint31_linear_187_2840" x1="129.5" y1="85" x2="129.5" y2="116" gradientUnits="userSpaceOnUse">
<stop stop-color="#05A0F8"/>
<stop offset="1" stop-color="#0DCEF8"/>
</linearGradient>
</defs>
</svg>
