<svg width="271" height="56" viewBox="0 0 271 56" fill="none" xmlns="http://www.w3.org/2000/svg">
<g clip-path="url(#clip0_114_2510)">
<path d="M77.8617 16.9103C79.1898 18.5502 81.7396 22.4646 83.758 26.0617C84.0769 26.6436 84.2363 27.1196 84.2363 27.384C84.2363 28.7595 79.0305 31.1397 78.1274 31.1397C77.5962 31.1397 77.2243 30.558 76.7461 29.6588C76.162 28.5479 73.7183 24.0515 71.5406 20.8777C71.328 20.6131 70.8498 19.9785 70.8498 19.6081C70.8498 18.5502 75.8433 16.2757 76.8525 16.2757C77.2776 16.2757 77.5962 16.646 77.8617 16.9103V16.9103ZM111.009 15.7994C111.593 16.0111 113.188 16.3997 112.765 17.2438C112.341 18.0879 111.917 19.354 111.54 20.5604C108.406 32.2506 102.509 41.7723 92.6822 47.6439C89.1763 49.7068 85.7235 50.9763 81.899 52.2459C81.58 52.3516 81.1552 52.5103 80.7834 52.5103C79.8271 52.5103 78.6586 50.8706 77.7023 49.5481C76.9586 48.4902 75.8433 46.9562 75.8433 46.1627C75.8433 45.475 76.5868 45.2634 77.1712 45.1577C80.5708 44.2055 83.9705 43.0418 87.1577 41.4547C96.9849 36.641 103.094 25.0038 104.103 14.4771C104.156 14.0012 104.209 13.6309 104.687 13.6309C105.219 13.6309 110.159 15.4821 111.009 15.7994V15.7994ZM91.5136 13.4192C93.1072 15.5351 94.7008 17.9156 97.2507 22.4116C97.5693 22.9936 97.6757 23.4169 97.6757 23.6282C97.6757 24.9508 92.4699 27.3313 91.5136 27.3313C90.9293 27.3313 90.7167 26.855 90.1855 25.8501C88.539 22.8349 86.839 19.8728 84.8736 17.069C84.7143 16.7517 84.2363 16.1697 84.2363 15.8524C84.2363 14.7945 89.2295 12.467 90.2387 12.467C90.7167 12.467 91.195 13.0489 91.5136 13.4192V13.4192Z" fill="#3A3A3A"/>
<path d="M141.234 21.6183C142.191 21.6183 142.828 20.8777 142.828 19.9785C142.828 17.175 142.722 14.3712 142.722 11.6207V11.0387C142.722 10.0865 142.615 9.71646 142.615 9.34616C142.615 9.02857 142.828 8.92288 143.147 8.92288C143.997 8.92288 149.096 9.39887 150.265 9.55753C150.69 9.61051 150.909 9.69837 150.909 10.28C150.909 10.5447 150.902 11.7264 150.902 12.8903V16.8574C150.902 18.6032 150.902 20.2428 150.955 20.4544C151.168 21.1421 151.859 21.6183 152.549 21.6183H158.074C159.88 21.6183 161.686 21.6183 163.492 21.5654C164.182 21.5654 164.926 21.5124 165.617 21.5124C166.838 21.5124 167.104 21.8827 167.104 24.2632V26.5907C167.104 29.2885 166.679 29.6588 165.404 29.6588C162.961 29.6588 160.517 29.6058 158.074 29.6058H151.911C150.637 29.6058 150.318 30.558 150.105 31.9333C148.724 40.7143 143.306 48.6488 135.285 52.8806C134.913 53.0392 134.329 53.3038 134.063 53.3038C132.735 53.3038 127.954 48.9134 127.954 47.8025C127.954 47.2206 128.857 46.9033 129.442 46.6916C135.551 43.9938 140.278 38.8628 141.766 32.3036C141.819 31.8803 141.978 31.2984 141.978 30.8754C141.978 30.1877 141.5 29.6058 140.756 29.6058H128.964C128.061 29.6058 127.211 29.6058 126.308 29.6588C125.83 29.7115 125.139 29.7115 124.661 29.7115C123.12 29.7115 123.014 28.6008 123.014 26.326V24.2102C123.014 22.253 123.067 21.4597 124.448 21.4597C125.245 21.4597 126.095 21.5653 126.892 21.5653C128.485 21.6183 130.026 21.6183 131.62 21.6183H141.234H141.234Z" fill="#3A3A3A"/>
<path d="M209.388 16.2227C210.344 16.2227 213.21 16.1887 213.422 16.1887C217.237 16.1887 218.508 18.2989 216.347 22.253C215.815 23.0993 210.879 40.2451 190.265 51.611C189.468 52.0343 187.502 53.0922 186.812 53.0922C185.855 53.0922 183.571 51.082 182.722 50.3417C182.084 49.7597 180.862 48.6488 180.862 47.9082C180.862 47.3263 181.606 46.9562 182.296 46.5859C182.456 46.533 182.615 46.4273 182.775 46.3743C191.327 42.3539 198.126 36.7999 203.279 28.9182C203.863 28.0189 205.404 25.5327 205.404 24.5275C205.404 23.8399 204.66 23.7872 204.023 23.7872H196.426C195.523 23.7872 195.099 24.4218 194.62 25.0565C193.558 26.5377 191.274 29.1825 189.946 30.558C189.255 31.2984 186.759 33.9435 185.909 33.9435C184.846 33.9435 181.022 31.3514 180.118 30.6107C179.8 30.2934 179.428 29.8701 179.428 29.3942C179.428 29.0238 179.694 28.7595 179.959 28.5479C183.306 25.903 185.909 23.1522 188.405 19.7668C190.583 16.8047 193.239 12.52 194.514 9.08154C194.78 8.39391 195.045 7.60033 195.47 7.60033C195.948 7.60033 201.473 10.3511 202.376 10.8271C203.014 11.0917 203.251 11.6515 203.039 11.7572C201.979 13.2344 201.048 14.9002 201.048 15.2705C201.048 15.8524 201.526 16.117 202.057 16.2227H209.388V16.2227Z" fill="#05A0F8"/>
<path d="M261.818 22.253C266.4 22.253 269.039 21.6076 270.214 23.3634C270.638 23.9965 271.486 25.8957 270.636 29.3942C267.767 37.4346 263.04 43.5178 256.399 48.7545C254.859 50.0241 249.388 53.9385 247.581 53.9385C245.988 53.9385 242.269 49.2835 242.269 48.2785C242.269 47.8025 242.96 47.4852 243.332 47.3263C248.856 45.0518 254.593 40.1854 258.206 35.4774C258.843 34.6311 260.543 32.2506 260.543 31.2457C260.543 30.1877 259.48 30.0818 258.843 30.0818H240.729C238.339 30.0818 236.001 30.1348 233.664 30.1348C232.07 30.1348 231.858 29.6588 231.858 27.5956V24.5805C231.858 22.4646 232.177 22.1473 233.558 22.1473C236.001 22.1473 238.445 22.253 240.888 22.253H261.818V22.253ZM257.303 10.7214C258.949 10.7214 260.649 10.7214 262.349 10.6684C263.04 10.6684 263.73 10.5628 264.421 10.5628C265.749 10.5628 265.961 11.3034 265.961 13.2076V15.6937C265.961 17.8626 265.908 18.5502 264.261 18.5502C261.924 18.5502 259.587 18.4972 257.303 18.4972H244.925C242.641 18.4972 240.304 18.5502 237.967 18.5502C236.373 18.5502 236.267 17.8626 236.267 15.8524V12.943C236.267 11.1974 236.586 10.5628 237.807 10.5628C239.401 10.5628 242.323 10.7214 244.925 10.7214H257.303V10.7214Z" fill="#05A0F8"/>
<path d="M26.1592 49.1516C18.8162 49.1516 12.77 47.9171 11.9813 46.33H11.8932V52.6785H11.9813C12.77 54.2655 18.8162 55.5 26.1592 55.5C33.5021 55.5 39.5484 54.2655 40.337 52.6785H40.4251V46.33H40.337C39.5484 47.9171 33.5021 49.1516 26.1592 49.1516V49.1516Z" fill="#05A0F8"/>
<path d="M26.1592 39.9816C18.8162 39.9816 12.77 38.7471 11.9813 37.16H11.8932V43.5085H11.9813C12.1684 43.885 12.6513 44.2415 13.3773 44.5666C15.7118 45.6117 20.5581 46.33 26.1592 46.33C31.7603 46.33 36.6065 45.6117 38.941 44.5666C39.667 44.2415 40.1499 43.885 40.337 43.5085H40.4251V37.16H40.337C39.5484 38.7471 33.5021 39.9816 26.1592 39.9816V39.9816Z" fill="#05A0F8"/>
<path d="M40.337 27.99C39.5484 29.5771 33.5021 30.8116 26.1592 30.8116C18.8162 30.8116 12.77 29.5771 11.9813 27.99H11.8932V34.3385H11.9813C12.1684 34.715 12.6513 35.0715 13.3773 35.3966C15.7118 36.4417 20.5581 37.16 26.1592 37.16C31.7603 37.16 36.6065 36.4417 38.941 35.3966C39.667 35.0715 40.1499 34.715 40.337 34.3385H40.4251V27.99H40.337V27.99Z" fill="#05A0F8"/>
<path d="M52.3183 34.7022H52.3096V26.1913L31.2807 8.66358L34.8989 5.64032L30.8319 0.5L26.1592 4.39477L21.4864 0.5L17.4195 5.64032L21.0377 8.66358L0.00882521 26.1913V34.7022H0L0.0489422 34.7603L26.1592 12.943L52.2695 34.7603L52.3183 34.7022Z" fill="#05A0F8"/>
</g>
<defs>
<clipPath id="clip0_114_2510">
<rect width="271" height="55" fill="white" transform="translate(0 0.5)"/>
</clipPath>
</defs>
</svg>
